<?xml version="1.0" encoding="utf-8"?>
<!-- Generator: Adobe Illustrator 18.1.1, SVG Export Plug-In . SVG Version: 6.00 Build 0)  -->
<svg version="1.1" id="Layer_1" xmlns="http://www.w3.org/2000/svg" xmlns:xlink="http://www.w3.org/1999/xlink" x="0px" y="0px"
	 viewBox="0 0 224.8 26.9" enable-background="new 0 0 224.8 26.9" xml:space="preserve">
<g>
	<path fill="#FFFFFF" d="M12.7,0L7.1,26.9H2.9L0,0h3.5l1.8,20.5L9.2,0H12.7z"/>
	<path fill="#FFFFFF" d="M13.7,26.9L15.1,0h8.8l-0.1,3.3h-5.2L18,11.4h4.6l-0.1,3.3h-4.6l-0.5,9h5.2l-0.1,3.3H13.7z"/>
	<path fill="#FFFFFF" d="M25.7,26.9L27.1,0h3.5l-1.4,26.9H25.7z"/>
	<path fill="#FFFFFF" d="M46.9,26.9h-9.6c-2.8,0-4.2-1.5-4-4.5l0.9-17.8C34.4,1.5,35.9,0,38.7,0h3.4c2.8,0,4.1,1.5,4,4.6l-1,19h2
		L46.9,26.9z M41.5,23.6l1-18.8c0-1-0.4-1.6-1.5-1.6h-1.6c-1,0-1.6,0.5-1.6,1.6l-0.9,17.2c-0.1,1,0.4,1.6,1.5,1.6H41.5z"/>
	<path fill="#FFFFFF" d="M62.2,0L61,21.8c-0.2,3.4-1.7,5.1-4.5,5.1h-3c-2.8,0-4.1-1.7-4-5.1L50.7,0h3.5l-1.1,21.9
		c-0.1,1.2,0.4,1.8,1.4,1.8H56c0.9,0,1.5-0.6,1.5-1.8L58.6,0H62.2z"/>
	<path fill="#FFFFFF" d="M64.8,26.9L66.2,0H75l-0.1,3.3h-5.2l-0.4,8.2h4.6l-0.1,3.3H69l-0.5,9h5.2l-0.1,3.3H64.8z"/>
</g>
<g opacity="0.5">
	<path fill="#FFFFFF" d="M104.1,10.2l-1.6,7.6c-0.3,1.4-0.8,2.4-1.5,3c-0.7,0.6-1.7,0.9-2.9,0.9c-2.3,0-3.4-1-3.4-3.1
		c0-0.4,0.1-1,0.2-1.6l1.5-6.9H97l-1.5,7c-0.1,0.5-0.2,0.9-0.2,1.4c0,1.6,0.9,2.4,2.7,2.4c1,0,1.8-0.3,2.4-0.8s1-1.3,1.2-2.5
		l1.6-7.6H104.1z"/>
	<path fill="#FFFFFF" d="M109.9,21.6l1.2-5.4c0.1-0.5,0.2-0.9,0.2-1.2c0-0.4-0.1-0.7-0.3-1s-0.6-0.4-1.1-0.4c-0.6,0-1.1,0.2-1.6,0.5
		c-0.5,0.3-0.9,0.8-1.3,1.5s-0.6,1.4-0.8,2.2l-0.8,3.7h-0.8l1.8-8.5h0.6l-0.3,1.7h0c0.9-1.2,1.9-1.9,3.2-1.9c0.7,0,1.2,0.2,1.5,0.5
		c0.3,0.3,0.5,0.8,0.5,1.4c0,0.4-0.1,0.8-0.2,1.4l-1.2,5.3H109.9z"/>
	<path fill="#FFFFFF" d="M114.2,21.6h-0.7L116,9.4h0.7L114.2,21.6z"/>
	<path fill="#FFFFFF" d="M120.2,21.8c-0.9,0-1.6-0.3-2.1-0.9s-0.8-1.4-0.8-2.4c0-0.9,0.2-1.8,0.6-2.7s0.9-1.6,1.5-2.1
		c0.6-0.5,1.4-0.8,2.1-0.8c0.6,0,1.1,0.2,1.4,0.5c0.4,0.3,0.5,0.8,0.5,1.3c0,0.9-0.4,1.7-1.3,2.2s-2.1,0.7-3.8,0.7h-0.3
		c0,0.2,0,0.5,0,0.8c0,0.9,0.2,1.5,0.6,2s0.9,0.7,1.7,0.7c0.7,0,1.4-0.2,2.2-0.6v0.7C121.8,21.6,121,21.8,120.2,21.8z M121.5,13.7
		c-0.7,0-1.3,0.3-1.9,0.9c-0.6,0.6-1,1.4-1.3,2.4h0.4c2.7,0,4-0.7,4-2.1c0-0.3-0.1-0.6-0.3-0.9S121.8,13.7,121.5,13.7z"/>
	<path fill="#FFFFFF" d="M128.9,13c1.2,0,1.9,0.6,2.2,1.7h0l0.5-1.6h0.6l-1.8,8.5h-0.6l0.4-2.1h0c-0.4,0.7-0.9,1.3-1.5,1.7
		s-1.2,0.6-1.9,0.6c-1.5,0-2.2-1-2.2-2.9c0-1,0.2-2,0.6-2.9s0.9-1.7,1.6-2.2S128.1,13,128.9,13z M127,21.1c0.5,0,0.9-0.2,1.4-0.5
		s0.9-0.8,1.2-1.3s0.6-1.1,0.8-1.8s0.3-1.2,0.3-1.7c0-0.4-0.1-0.8-0.2-1.1c-0.1-0.3-0.3-0.6-0.6-0.8c-0.3-0.2-0.6-0.3-1-0.3
		c-0.6,0-1.2,0.2-1.8,0.6c-0.5,0.4-0.9,1.1-1.3,1.9s-0.5,1.7-0.5,2.5c0,0.8,0.1,1.4,0.4,1.7S126.4,21.1,127,21.1z"/>
	<path fill="#FFFFFF" d="M138.2,19.3c0,0.8-0.3,1.3-0.8,1.8s-1.3,0.7-2.2,0.7c-0.9,0-1.7-0.2-2.4-0.6v-0.8c0.4,0.2,0.8,0.4,1.2,0.6
		s0.8,0.2,1.2,0.2c0.7,0,1.3-0.1,1.6-0.4s0.6-0.7,0.6-1.3c0-0.2,0-0.4-0.1-0.6s-0.2-0.3-0.4-0.5s-0.5-0.4-1-0.7
		c-0.8-0.4-1.3-0.8-1.6-1.1s-0.4-0.8-0.4-1.2c0-0.7,0.3-1.2,0.8-1.6c0.5-0.4,1.2-0.6,2-0.6c0.4,0,0.8,0,1.2,0.1
		c0.4,0.1,0.8,0.2,1.1,0.4l-0.3,0.7c-0.7-0.3-1.4-0.5-2.1-0.5c-0.6,0-1.1,0.1-1.5,0.4c-0.4,0.3-0.5,0.6-0.5,1.1c0,0.3,0,0.5,0.1,0.7
		s0.2,0.4,0.5,0.5s0.5,0.4,0.9,0.6c0.6,0.3,1,0.6,1.3,0.8s0.4,0.4,0.5,0.7S138.2,19,138.2,19.3z"/>
	<path fill="#FFFFFF" d="M145.1,21.6l1.2-5.4c0.1-0.5,0.2-0.9,0.2-1.2c0-0.4-0.1-0.7-0.3-1s-0.6-0.4-1.1-0.4c-0.6,0-1.1,0.2-1.6,0.5
		c-0.5,0.3-0.9,0.8-1.3,1.5s-0.6,1.4-0.8,2.2l-0.8,3.7h-0.8l2.6-12.2h0.8l-0.7,3.2c-0.2,1-0.4,1.8-0.5,2.2h0c0.4-0.6,0.9-1,1.5-1.4
		c0.6-0.3,1.2-0.5,1.8-0.5c0.6,0,1.1,0.2,1.5,0.5c0.4,0.3,0.5,0.8,0.5,1.4c0,0.4-0.1,0.8-0.2,1.4l-1.2,5.3H145.1z"/>
	<path fill="#FFFFFF" d="M153.1,13.1h0.8l0.6,4.3c0.3,1.8,0.4,3,0.4,3.5h0.1c0.2-0.5,0.7-1.5,1.5-2.9l2.7-4.9h0.8l-5.6,10.1
		c-0.4,0.7-0.7,1.1-1,1.4s-0.6,0.5-0.9,0.6s-0.7,0.2-1.1,0.2c-0.4,0-0.7-0.1-1-0.2v-0.7c0.4,0.1,0.7,0.2,1.1,0.2
		c0.4,0,0.8-0.1,1.1-0.4s0.7-0.7,1-1.3c0.3-0.6,0.6-1.1,0.8-1.4L153.1,13.1z"/>
	<path fill="#FFFFFF" d="M164.4,12.9c0.9,0,1.7,0.3,2.2,0.8c0.5,0.6,0.8,1.3,0.8,2.3c0,1-0.2,2-0.6,2.9s-0.9,1.6-1.5,2
		s-1.4,0.7-2.2,0.7c-1,0-1.7-0.3-2.2-0.9s-0.7-1.4-0.7-2.4c0-1,0.2-1.9,0.6-2.8s0.9-1.5,1.5-2S163.6,12.9,164.4,12.9z M164.4,13.6
		c-0.6,0-1.2,0.2-1.7,0.6c-0.5,0.4-0.9,1-1.2,1.8s-0.5,1.6-0.5,2.4c0,1.8,0.7,2.7,2.2,2.7c0.7,0,1.2-0.2,1.8-0.6s0.9-1,1.2-1.8
		s0.5-1.6,0.5-2.6c0-0.8-0.2-1.4-0.6-1.9C165.6,13.8,165.1,13.6,164.4,13.6z"/>
	<path fill="#FFFFFF" d="M171.1,13.1l-1.2,5.5c-0.1,0.6-0.2,1-0.2,1.2c0,0.4,0.1,0.7,0.4,0.9s0.6,0.3,1.1,0.3c0.6,0,1.1-0.2,1.6-0.5
		s0.9-0.8,1.3-1.5s0.6-1.4,0.8-2.2l0.8-3.8h0.8l-1.8,8.5h-0.6l0.2-1.6h0c-0.9,1.2-1.9,1.7-3.1,1.7c-0.7,0-1.2-0.2-1.6-0.5
		s-0.5-0.8-0.5-1.4c0-0.3,0.1-0.8,0.2-1.3l1.2-5.4H171.1z"/>
	<path fill="#FFFFFF" d="M182.7,13c0.4,0,0.7,0,1,0.1l-0.2,0.7c-0.2-0.1-0.5-0.1-0.9-0.1c-0.5,0-1,0.2-1.4,0.5
		c-0.4,0.3-0.8,0.8-1.2,1.5s-0.6,1.4-0.8,2.2l-0.8,3.8h-0.8l1.8-8.5h0.6l-0.2,1.6h0c0.4-0.5,0.7-0.8,1-1.1c0.3-0.2,0.5-0.4,0.8-0.5
		C182,13,182.3,13,182.7,13z"/>
	<path fill="#FFFFFF" d="M192.5,13.1l-0.1,0.6h-2.2l-1.1,5c-0.1,0.5-0.2,0.9-0.2,1.3c0,0.7,0.3,1.1,1,1.1c0.4,0,0.8-0.1,1.2-0.2v0.7
		c-0.5,0.1-1,0.2-1.3,0.2c-0.5,0-0.9-0.1-1.2-0.4c-0.3-0.3-0.4-0.7-0.4-1.2c0-0.4,0.1-0.9,0.2-1.6l1-4.7H188l0.1-0.5l1.4-0.1l0.8-2
		h0.4l-0.4,2H192.5z"/>
	<path fill="#FFFFFF" d="M197.5,13c0.4,0,0.7,0,1,0.1l-0.2,0.7c-0.2-0.1-0.5-0.1-0.9-0.1c-0.5,0-1,0.2-1.4,0.5
		c-0.4,0.3-0.8,0.8-1.2,1.5s-0.6,1.4-0.8,2.2l-0.8,3.8h-0.8l1.8-8.5h0.6l-0.2,1.6h0c0.4-0.5,0.7-0.8,1-1.1c0.3-0.2,0.5-0.4,0.8-0.5
		C196.8,13,197.1,13,197.5,13z"/>
	<path fill="#FFFFFF" d="M202.9,13c1.2,0,1.9,0.6,2.2,1.7h0l0.5-1.6h0.6l-1.8,8.5h-0.6l0.4-2.1h0c-0.4,0.7-0.9,1.3-1.5,1.7
		s-1.2,0.6-1.9,0.6c-1.5,0-2.2-1-2.2-2.9c0-1,0.2-2,0.6-2.9s0.9-1.7,1.6-2.2S202.1,13,202.9,13z M201,21.1c0.5,0,0.9-0.2,1.4-0.5
		s0.9-0.8,1.2-1.3s0.6-1.1,0.8-1.8s0.3-1.2,0.3-1.7c0-0.4-0.1-0.8-0.2-1.1c-0.1-0.3-0.3-0.6-0.6-0.8c-0.3-0.2-0.6-0.3-1-0.3
		c-0.6,0-1.2,0.2-1.8,0.6c-0.5,0.4-0.9,1.1-1.3,1.9s-0.5,1.7-0.5,2.5c0,0.8,0.1,1.4,0.4,1.7S200.4,21.1,201,21.1z"/>
	<path fill="#FFFFFF" d="M208.8,21.6l-1.3-8.5h0.8l0.8,5.7c0.1,0.9,0.2,1.5,0.3,2h0c0.3-0.6,0.6-1.3,1-2l3.2-5.7h0.8l-4.7,8.5H208.8
		z"/>
	<path fill="#FFFFFF" d="M217.3,21.8c-0.9,0-1.6-0.3-2.1-0.9s-0.8-1.4-0.8-2.4c0-0.9,0.2-1.8,0.6-2.7s0.9-1.6,1.5-2.1
		c0.6-0.5,1.4-0.8,2.1-0.8c0.6,0,1.1,0.2,1.4,0.5c0.4,0.3,0.5,0.8,0.5,1.3c0,0.9-0.4,1.7-1.3,2.2s-2.1,0.7-3.8,0.7h-0.3
		c0,0.2,0,0.5,0,0.8c0,0.9,0.2,1.5,0.6,2s0.9,0.7,1.7,0.7c0.7,0,1.4-0.2,2.2-0.6v0.7C218.9,21.6,218.1,21.8,217.3,21.8z M218.6,13.7
		c-0.7,0-1.3,0.3-1.9,0.9c-0.6,0.6-1,1.4-1.3,2.4h0.4c2.7,0,4-0.7,4-2.1c0-0.3-0.1-0.6-0.3-0.9S219,13.7,218.6,13.7z"/>
	<path fill="#FFFFFF" d="M222.2,21.6h-0.7l2.6-12.2h0.7L222.2,21.6z"/>
</g>
</svg>
