<?xml version="1.0" encoding="utf-8"?>
<!-- Generator: Adobe Illustrator 18.1.1, SVG Export Plug-In . SVG Version: 6.00 Build 0)  -->
<svg version="1.1" id="Layer_1" xmlns="http://www.w3.org/2000/svg" xmlns:xlink="http://www.w3.org/1999/xlink" x="0px" y="0px"
	 viewBox="0 0 82.5 82.5" enable-background="new 0 0 82.5 82.5" xml:space="preserve">
<path fill="#A17960" d="M46,41.3L81.6,5.7c1.3-1.3,1.3-3.4,0-4.7c-1.3-1.3-3.4-1.3-4.7,0L41.3,36.6L5.7,1C4.4-0.3,2.3-0.3,1,1
	s-1.3,3.4,0,4.7l35.6,35.6L1,76.9c-1.3,1.3-1.3,3.4,0,4.7s3.4,1.3,4.7,0L41.3,46l35.6,35.6c1.3,1.3,3.4,1.3,4.7,0
	c1.3-1.3,1.3-3.4,0-4.7L46,41.3z"/>
</svg>
