<?xml version="1.0" encoding="utf-8"?>
<!-- Generator: Adobe Illustrator 18.1.1, SVG Export Plug-In . SVG Version: 6.00 Build 0)  -->
<svg version="1.1" id="Layer_1" xmlns="http://www.w3.org/2000/svg" xmlns:xlink="http://www.w3.org/1999/xlink" x="0px" y="0px"
	 viewBox="0 0 82.5 82.5" enable-background="new 0 0 82.5 82.5" xml:space="preserve">
<path fill="#A07860" d="M79.1,37.9H27c0,2.3,0,4.5,0,6.8h52.1c1.9,0,3.4-1.5,3.4-3.4S81,37.9,79.1,37.9z"/>
<path fill="#A07860" d="M12.6,37.9c10.5-10.5,21-21,31.5-31.5c1.3-1.3,1.3-3.5,0-4.8c-1.3-1.3-3.5-1.3-4.8,0
	C26.9,14,14.4,26.4,2,38.9c-1.3,1.3-1.3,3.5,0,4.8C14.4,56.1,26.9,68.5,39.3,81c1.3,1.3,3.5,1.3,4.8,0c1.3-1.3,1.3-3.5,0-4.8
	c-10.5-10.5-21-21-31.5-31.5h42.3c0-2.3,0-4.5,0-6.8H12.6z"/>
</svg>
